<svg xmlns="http://www.w3.org/2000/svg" viewBox="0 0 101.05 85.83"><defs><style>.cls-1{fill:#82aaff;}.cls-2{fill:#7fb785;}</style></defs><g id="Layer_2" data-name="Layer 2"><g id="Layer_1-2" data-name="Layer 1"><path class="cls-1" d="M62.31,40.41l-2.9,1.66a29.16,29.16,0,1,0,0,29.18l2.9,1.66a32.49,32.49,0,1,1,0-32.5Zm-5.8,3.33-2.86,1.67a22.49,22.49,0,1,0,0,22.5l2.86,1.67a25.82,25.82,0,1,1,0-25.84Zm-5.77,3.33-2.86,1.67a15.82,15.82,0,1,0,0,15.84l2.86,1.67a19.15,19.15,0,1,1,0-19.18ZM45,50.41l-2.9,1.67a9.18,9.18,0,1,0,0,9.16L45,62.91a12.49,12.49,0,1,1,0-12.5Zm-5.77,3.33-2.9,1.67a2.53,2.53,0,0,0-2.17-1.23,2.49,2.49,0,0,0-2.5,2.5,2.52,2.52,0,0,0,2.5,2.5,2.48,2.48,0,0,0,2.17-1.27l2.9,1.67a5.82,5.82,0,0,1-10.87-2.9,5.83,5.83,0,0,1,10.87-2.94Z" transform="translate(-1.67 -24.17)"/><path class="cls-2" d="M42.07,93.77,45,92.1a29.16,29.16,0,1,0,0-29.17l-2.9-1.67a32.49,32.49,0,1,1,0,32.51Zm5.8-3.34,2.87-1.66a22.5,22.5,0,1,0,0-22.51l-2.87-1.67a25.82,25.82,0,1,1,0,25.84Zm5.77-3.33,2.86-1.67a15.82,15.82,0,1,0,0-15.84l-2.86-1.66a19.16,19.16,0,1,1,0,19.17Zm5.77-3.34,2.9-1.66a9.19,9.19,0,1,0,0-9.17l-2.9-1.67a12.49,12.49,0,1,1,0,12.5Zm5.76-3.33,2.9-1.67a2.51,2.51,0,1,0,0-2.5l-2.9-1.66a5.82,5.82,0,1,1,0,5.83Z" transform="translate(-1.67 -24.17)"/></g></g></svg>